<svg width="45" height="45" viewBox="0 0 45 45" fill="none" xmlns="http://www.w3.org/2000/svg">
<g filter="url(#filter0_d)">
<path d="M13.3033 9.30327L31.3345 16.7279L23.8177 19.8176L20.7279 27.3345L13.3033 9.30327Z" fill="#E60084"/>
<path d="M13.6841 8.37859C13.3108 8.22488 12.8817 8.3107 12.5962 8.59616C12.3107 8.88162 12.2249 9.31072 12.3786 9.68402L19.8032 27.7152C19.9576 28.09 20.3229 28.3346 20.7282 28.3345C21.1336 28.3344 21.4987 28.0896 21.6528 27.7147L24.5839 20.5839L31.7147 17.6528C32.0896 17.4987 32.3344 17.1335 32.3345 16.7282C32.3346 16.3229 32.0901 15.9575 31.7153 15.8032L13.6841 8.37859Z" stroke="white" stroke-width="2" stroke-linejoin="round"/>
</g>
<defs>
<filter id="filter0_d" x="0.302734" y="0.303223" width="44.0313" height="44.0313" filterUnits="userSpaceOnUse" color-interpolation-filters="sRGB">
<feFlood flood-opacity="0" result="BackgroundImageFix"/>
<feColorMatrix in="SourceAlpha" type="matrix" values="0 0 0 0 0 0 0 0 0 0 0 0 0 0 0 0 0 0 127 0"/>
<feOffset dy="4"/>
<feGaussianBlur stdDeviation="5.5"/>
<feColorMatrix type="matrix" values="0 0 0 0 0 0 0 0 0 0 0 0 0 0 0 0 0 0 0.25 0"/>
<feBlend mode="normal" in2="BackgroundImageFix" result="effect1_dropShadow"/>
<feBlend mode="normal" in="SourceGraphic" in2="effect1_dropShadow" result="shape"/>
</filter>
</defs>
</svg>
