<svg width="14" height="14" viewBox="0 0 14 14" fill="none" xmlns="http://www.w3.org/2000/svg">
<path d="M11.0833 6.41675H2.91667C2.27233 6.41675 1.75 6.93908 1.75 7.58341V11.6667C1.75 12.3111 2.27233 12.8334 2.91667 12.8334H11.0833C11.7277 12.8334 12.25 12.3111 12.25 11.6667V7.58341C12.25 6.93908 11.7277 6.41675 11.0833 6.41675Z" fill="black" stroke="black" stroke-width="2" stroke-linecap="round" stroke-linejoin="round"/>
<path d="M4.08398 6.41675V4.08341C4.08398 3.30987 4.39128 2.568 4.93826 2.02102C5.48524 1.47404 6.2271 1.16675 7.00065 1.16675C7.7742 1.16675 8.51607 1.47404 9.06305 2.02102C9.61003 2.568 9.91732 3.30987 9.91732 4.08341V6.41675" stroke="black" stroke-width="2" stroke-linecap="round" stroke-linejoin="round"/>
</svg>
