<svg width="106" height="32" viewBox="0 0 106 32" fill="none" xmlns="http://www.w3.org/2000/svg">
<path d="M6.41101 0H0V32H6.41101V17.2308L19.233 32H26.1783L12.2878 16L26.1783 0H19.233L6.41101 14.7692V0Z" fill="black"/>
<path fill-rule="evenodd" clip-rule="evenodd" d="M45.9456 0V32H61.4388C67.0448 32 71.5896 27.4632 71.5896 21.8667C71.5896 18.7382 70.1695 15.9409 67.9375 14.0821C68.8949 12.6457 69.4526 10.9212 69.4526 9.06667C69.4526 4.05928 65.3862 0 60.3703 0H45.9456ZM60.3703 11.7333C61.8458 11.7333 63.0416 10.5394 63.0416 9.06667C63.0416 7.59391 61.8458 6.4 60.3703 6.4H52.3566V11.7333H60.3703ZM52.3566 25.6H61.4388C63.5044 25.6 65.1786 23.9285 65.1786 21.8667C65.1786 19.8048 63.5044 18.1333 61.4388 18.1333H52.3566V25.6Z" fill="black"/>
<path fill-rule="evenodd" clip-rule="evenodd" d="M80.1376 32H73.7266L86.5486 0H92.9596L105.782 32H99.3707L96.3791 24.5333H83.1292L80.1376 32ZM85.694 18.1333H93.8142L89.7541 8L85.694 18.1333Z" fill="black"/>
<path d="M32.055 0H38.4661V32H32.055V8L37.9318 2.66667H32.055V0Z" fill="black"/>
<mask id="mask0" mask-type="alpha" maskUnits="userSpaceOnUse" x="0" y="0" width="106" height="32">
<path d="M6.41101 0H0V32H6.41101V17.2308L19.233 32H26.1783L12.2878 16L26.1783 0H19.233L6.41101 14.7692V0Z" fill="black"/>
<path fill-rule="evenodd" clip-rule="evenodd" d="M45.9456 0V32H61.4388C67.0448 32 71.5896 27.4632 71.5896 21.8667C71.5896 18.7382 70.1695 15.9409 67.9375 14.0821C68.8949 12.6457 69.4526 10.9212 69.4526 9.06667C69.4526 4.05928 65.3862 0 60.3703 0H45.9456ZM60.3703 11.7333C61.8458 11.7333 63.0416 10.5394 63.0416 9.06667C63.0416 7.59391 61.8458 6.4 60.3703 6.4H52.3566V11.7333H60.3703ZM52.3566 25.6H61.4388C63.5044 25.6 65.1786 23.9285 65.1786 21.8667C65.1786 19.8048 63.5044 18.1333 61.4388 18.1333H52.3566V25.6Z" fill="black"/>
<path fill-rule="evenodd" clip-rule="evenodd" d="M80.1376 32H73.7266L86.5486 0H92.9596L105.782 32H99.3707L96.3791 24.5333H83.1292L80.1376 32ZM85.694 18.1333H93.8142L89.7541 8L85.694 18.1333Z" fill="black"/>
<path d="M32.055 0H38.4661V32H32.055V8L37.9318 2.66667H32.055V0Z" fill="black"/>
</mask>
<g mask="url(#mask0)">
<path d="M21.0996 18.0262H29.6013L41.5237 7.09568V-0.698669L21.0996 18.0262Z" fill="#F2C94C"/>
<path d="M100.215 13.2751H108.717L88.2927 32H79.791L100.215 13.2751Z" fill="#EB5757"/>
</g>
</svg>
