<svg width="166" height="154" viewBox="0 0 166 154" fill="none" xmlns="http://www.w3.org/2000/svg">
<path fill-rule="evenodd" clip-rule="evenodd" d="M155.759 71.9006C161.047 56.8663 153.145 40.3922 138.111 35.1046L65.5192 9.57409C50.4849 4.28654 34.0108 12.1878 28.7233 27.2221C23.4414 42.2401 31.3199 58.6949 46.3225 64.0009C31.3013 58.7473 14.8569 66.6477 9.57503 81.6659C4.28747 96.7002 12.1888 113.174 27.2231 118.462L99.815 143.992C114.849 149.28 131.323 141.379 136.611 126.344C141.893 111.326 134.014 94.8709 119.011 89.5653C134.032 94.8195 150.477 86.9191 155.759 71.9006Z" fill="#F2C94C"/>
<path d="M138.111 35.1046L137.614 36.5197L138.111 35.1046ZM65.5192 9.57409L66.0169 8.15905L65.5192 9.57409ZM28.7233 27.2221L27.3082 26.7245L28.7233 27.2221ZM46.3225 64.0009L45.8273 65.4168L46.8227 62.5867L46.3225 64.0009ZM27.2231 118.462L27.7207 117.047L27.2231 118.462ZM99.815 143.992L99.3174 145.407L99.815 143.992ZM119.011 89.5653L119.506 88.1494L118.511 90.9794L119.011 89.5653ZM137.614 36.5197C151.866 41.5324 159.357 57.1501 154.344 71.4029L157.174 72.3983C162.737 56.5825 154.425 39.252 138.609 33.6896L137.614 36.5197ZM65.0216 10.9891L137.614 36.5197L138.609 33.6896L66.0169 8.15905L65.0216 10.9891ZM30.1383 27.7198C35.151 13.467 50.7688 5.97643 65.0216 10.9891L66.0169 8.15905C50.2011 2.59665 32.8706 10.9087 27.3082 26.7245L30.1383 27.7198ZM46.8227 62.5867C32.6 57.5565 25.131 41.9571 30.1383 27.7198L27.3082 26.7245C21.7518 42.5231 30.0399 59.8332 45.8224 65.415L46.8227 62.5867ZM10.9901 82.1636C15.9974 67.9261 31.587 60.4363 45.8273 65.4168L46.8177 62.585C31.0156 57.0583 13.7164 65.3694 8.15999 81.1682L10.9901 82.1636ZM27.7207 117.047C13.468 112.034 5.97737 96.4163 10.9901 82.1636L8.15999 81.1682C2.59758 96.984 10.9096 114.314 26.7254 119.877L27.7207 117.047ZM100.313 142.577L27.7207 117.047L26.7254 119.877L99.3174 145.407L100.313 142.577ZM135.196 125.847C130.183 140.099 114.565 147.59 100.313 142.577L99.3174 145.407C115.133 150.97 132.464 142.658 138.026 126.842L135.196 125.847ZM118.511 90.9794C132.734 96.0093 140.203 111.609 135.196 125.847L138.026 126.842C143.583 111.043 135.294 93.7325 119.511 88.1511L118.511 90.9794ZM154.344 71.4029C149.337 85.6407 133.747 93.1305 119.506 88.1494L118.515 90.9812C134.318 96.5086 151.618 88.1974 157.174 72.3983L154.344 71.4029Z" fill="black"/>
<path d="M63.7855 70.29C62.6401 78.725 67.5241 87.0877 75.8691 90.0226C77.7619 90.6883 79.6907 91.0248 81.5929 91.062L86.7965 101.911L101.816 94.7075L96.5755 83.7813C97.6852 82.311 98.59 80.6469 99.2338 78.8164C102.063 70.7729 98.9464 62.0803 92.1847 57.5343L65.6484 38.752L63.7855 70.29Z" fill="white"/>
<path d="M88.3597 97.4668L84.5968 89.6213L83.7095 87.7713L81.6581 87.731C80.0105 87.7085 78.6037 87.4648 76.9744 86.8798C70.1504 84.4798 66.1497 77.6384 67.0867 70.7382L67.1037 70.6128L67.1112 70.4864L68.6204 44.9371L90.26 60.2536L90.2927 60.2767L90.3259 60.2991C95.8589 64.019 98.4041 71.1344 96.091 77.7111C95.5456 79.2941 94.8843 80.5067 93.9161 81.7744L92.6944 83.3933L93.5716 85.222L97.3714 93.1444L88.3597 97.4668ZM63.7855 70.29C62.6401 78.725 67.5241 87.0877 75.8691 90.0226C77.7619 90.6883 79.6907 91.0248 81.5929 91.062L85.3558 98.9075L86.7965 101.911L89.8004 100.471L98.8121 96.1482L101.816 94.7075L100.375 91.7036L96.5755 83.7813C97.6852 82.311 98.5901 80.6469 99.2339 78.8164C102.063 70.7729 98.9464 62.0803 92.1847 57.5343L68.8518 41.0193L65.6484 38.752L65.417 42.6697L63.7855 70.29Z" fill="black"/>
<path d="M69.1888 42.2801L68.4684 40.7782L65.4645 42.2189L66.1849 43.7208L80.4473 73.4578L81.1677 74.9598L84.1715 73.5191L83.4512 72.0171L69.1888 42.2801Z" fill="black"/>
<path d="M86.663 74.395C85.7473 76.9986 82.8944 78.3669 80.2908 77.4512C77.6872 76.5355 76.3189 73.6826 77.2346 71.079C78.1503 68.4754 81.0032 67.1071 83.6068 68.0227C86.2104 68.9384 87.5787 71.7914 86.663 74.395Z" fill="black"/>
</svg>
