<svg width="134" height="134" viewBox="0 0 134 134" fill="none" xmlns="http://www.w3.org/2000/svg">
<rect x="1.73495" y="21.0097" width="112.431" height="112.431" rx="4.5" transform="rotate(-9.87134 1.73495 21.0097)" fill="black" stroke="#5B62F6" stroke-width="3"/>
<path d="M37.5749 91.0995C37.1792 91.1683 36.7994 91.0943 36.4356 90.8774C36.1045 90.6148 35.9052 90.2892 35.8376 89.9007L29.2457 52.0192C29.1714 51.5919 29.249 51.2181 29.4786 50.8979C29.7478 50.5709 30.0803 50.3729 30.4759 50.3041L47.094 47.4123C52.1585 46.531 56.3344 46.9852 59.6217 48.7749C62.9485 50.5577 64.9939 53.6443 65.7579 58.0347C66.5151 62.3862 65.6422 65.9206 63.1392 68.6378C60.6294 71.3162 56.8225 73.0994 51.7184 73.9876L44.6557 75.2166L46.8767 87.9797C46.9511 88.4071 46.8536 88.7843 46.5844 89.1114C46.3548 89.4316 46.0224 89.6295 45.5871 89.7052L37.5749 91.0995ZM50.0221 65.9967C51.7631 65.6938 53.0538 65.0289 53.8942 64.002C54.7279 62.9362 54.996 61.5486 54.6985 59.8391C54.4213 58.2461 53.7268 57.066 52.6149 56.2988C51.5358 55.4858 50.0665 55.2412 48.2069 55.5648L41.2629 56.7731L43.0782 67.2051L50.0221 65.9967Z" fill="#5B62F6"/>
<path d="M88.3483 82.8647C85.1434 83.4224 82.3751 83.4438 80.0434 82.9288C77.7513 82.407 75.9827 81.614 74.7376 80.5497C73.4925 79.4854 72.7855 78.4676 72.6165 77.4963C72.5489 77.1078 72.6333 76.7729 72.8697 76.4915C73.1389 76.1645 73.4515 75.97 73.8076 75.908L80.5735 74.7307C80.8109 74.6894 81.0454 74.7486 81.2771 74.9085C81.806 75.1367 82.206 75.3272 82.4772 75.4802C83.4559 75.9504 84.2888 76.2858 84.9759 76.4864C85.6959 76.6414 86.5307 76.6362 87.4803 76.471C88.6277 76.2713 89.5203 75.8958 90.1582 75.3445C90.8288 74.7474 91.0931 74.041 90.9512 73.2251C90.8362 72.5646 90.5471 72.0745 90.0838 71.7548C89.6601 71.4282 88.8837 71.1831 87.7545 71.0193C86.6186 70.8167 84.9254 70.691 82.6749 70.6423C79.2759 70.5533 76.5577 69.9255 74.5203 68.7589C72.5157 67.5466 71.2936 65.6777 70.8542 63.1523C70.577 61.5593 70.8277 59.9545 71.6063 58.338C72.3848 56.7214 73.7053 55.2907 75.5677 54.046C77.4697 52.7944 79.8253 51.9241 82.6346 51.4353C85.4438 50.9464 87.9713 50.9469 90.2171 51.4368C92.4629 51.9266 94.2281 52.7002 95.5127 53.7576C96.8302 54.7693 97.5768 55.7802 97.7526 56.7904C97.8134 57.1401 97.729 57.475 97.4994 57.7951C97.3093 58.1084 97.0362 58.296 96.6801 58.358L90.5077 59.4321C90.1912 59.4872 89.8775 59.4417 89.5668 59.2956C89.0051 59.1131 88.4993 58.9009 88.0496 58.659C87.2891 58.2709 86.5884 57.9925 85.9476 57.8239C85.3067 57.6552 84.5511 57.6465 83.6806 57.798C82.6519 57.977 81.8615 58.3547 81.3096 58.9311C80.7972 59.5006 80.6053 60.1545 80.7337 60.8927C80.8351 61.4755 81.0779 61.9336 81.4621 62.2671C81.8858 62.5936 82.6656 62.8582 83.8015 63.0608C84.9702 63.2177 86.6567 63.3046 88.8609 63.3213C92.8138 63.3139 95.8061 63.9941 97.8377 65.3618C99.9089 66.7227 101.141 68.5298 101.533 70.7833C102.033 73.6584 101.13 76.1973 98.8225 78.4001C96.5085 80.5641 93.0171 82.0523 88.3483 82.8647Z" fill="#5B62F6"/>
</svg>
