<svg width="151" height="151" viewBox="0 0 151 151" fill="none" xmlns="http://www.w3.org/2000/svg">
<path d="M146.467 68.1268C151.585 71.7097 151.585 79.2903 146.467 82.8732L131.4 93.4192C128.534 95.4256 127.09 98.9112 127.698 102.357L130.895 120.467C131.98 126.62 126.62 131.98 120.467 130.895L102.357 127.698C98.9112 127.09 95.4256 128.534 93.4192 131.4L82.8732 146.467C79.2903 151.585 71.7097 151.585 68.1268 146.467L57.5808 131.4C55.5744 128.534 52.0888 127.09 48.6434 127.698L30.5327 130.895C24.3798 131.98 19.0195 126.62 20.1054 120.467L23.3017 102.357C23.9098 98.9112 22.466 95.4256 19.5998 93.4192L4.53344 82.8732C-0.585163 79.2903 -0.585163 71.7097 4.53344 68.1268L19.5998 57.5808C22.466 55.5744 23.9098 52.0888 23.3017 48.6434L20.1055 30.5327C19.0195 24.3798 24.3798 19.0195 30.5327 20.1054L48.6434 23.3017C52.0888 23.9098 55.5744 22.466 57.5808 19.5998L68.1268 4.53344C71.7097 -0.585168 79.2903 -0.585162 82.8732 4.53344L93.4192 19.5998C95.4256 22.466 98.9112 23.9098 102.357 23.3017L120.467 20.1054C126.62 19.0195 131.98 24.3798 130.895 30.5327L127.698 48.6434C127.09 52.0888 128.534 55.5744 131.4 57.5808L146.467 68.1268Z" fill="black"/>
</svg>
