<svg width="48" height="48" viewBox="0 0 48 48" fill="none" xmlns="http://www.w3.org/2000/svg">
<path d="M2.00195 37.75V6C2.00195 3.79086 3.79281 2 6.00195 2H42.002C44.2111 2 46.002 3.79086 46.002 6V42C46.002 44.2091 44.2111 46 42.002 46H15.752" stroke="#F2C94C" stroke-width="3" stroke-linecap="round" stroke-linejoin="round"/>
<path d="M33.8507 14.7672L35.3507 14.7672L35.3507 13.2672L33.8507 13.2672L33.8507 14.7672ZM18.7737 29.8443L17.713 30.9049C18.2988 31.4907 19.2486 31.4907 19.8344 30.9049L18.7737 29.8443ZM14.3404 25.411L15.4011 24.3503C14.8153 23.7646 13.8656 23.7646 13.2798 24.3503L14.3404 25.411ZM0.903834 36.7263C0.318048 37.3121 0.318048 38.2618 0.903834 38.8476C1.48962 39.4334 2.43937 39.4334 3.02515 38.8476L0.903834 36.7263ZM32.7901 13.7066L17.713 28.7836L19.8344 30.9049L34.9114 15.8279L32.7901 13.7066ZM19.8344 28.7836L15.4011 24.3503L13.2798 26.4717L17.713 30.9049L19.8344 28.7836ZM13.2798 24.3503L0.903834 36.7263L3.02515 38.8476L15.4011 26.4717L13.2798 24.3503ZM33.8507 13.2672L24.9618 13.2672L24.9618 16.2672L33.8507 16.2672V13.2672ZM32.3507 14.7672L32.3507 23.5452L35.3507 23.5452L35.3507 14.7672L32.3507 14.7672Z" fill="white"/>
</svg>
