<svg width="199" height="195" viewBox="0 0 199 195" fill="none" xmlns="http://www.w3.org/2000/svg">
<ellipse cx="99.1904" cy="97.1387" rx="78.4091" ry="75" transform="rotate(-19.815 99.1904 97.1387)" fill="black"/>
<g clip-path="url(#clip0)">
<path d="M99.9158 97.4089C98.8317 94.4 99.0016 91.0786 100.388 88.1752C101.775 85.2718 104.265 83.0243 107.31 81.9271C110.355 80.8299 113.706 80.9729 116.625 82.3247C119.545 83.6764 121.795 86.1261 122.879 89.1349C123.963 92.1438 123.793 95.4652 122.406 98.3686C121.02 101.272 118.53 103.519 115.485 104.617C112.44 105.714 109.089 105.571 106.169 104.219C103.249 102.867 101 100.418 99.9158 97.4089Z" fill="#1ABCFE"/>
<path d="M85.1287 128.372C84.0446 125.363 84.2145 122.042 85.6011 119.139C86.9877 116.235 89.4774 113.988 92.5225 112.891L104.004 108.754L108.092 120.098C109.176 123.107 109.006 126.429 107.619 129.332C106.233 132.235 103.743 134.483 100.698 135.58C97.6528 136.677 94.3018 136.534 91.382 135.182C88.4622 133.831 86.2129 131.381 85.1287 128.372V128.372Z" fill="#0ACF83"/>
<path d="M87.6523 63.3745L95.8278 86.064L107.309 81.9271C110.354 80.8299 112.844 78.5824 114.231 75.679C115.617 72.7756 115.787 69.4542 114.703 66.4454C113.619 63.4365 111.369 60.9868 108.45 59.6351C105.53 58.2834 102.179 58.1404 99.1338 59.2375L87.6523 63.3745Z" fill="#FF7262"/>
<path d="M68.7772 82.9932C69.8613 86.002 72.1107 88.4517 75.0305 89.8035C77.9502 91.1552 81.3013 91.2982 84.3463 90.201L95.8278 86.064L87.6523 63.3745L76.1709 67.5115C73.1258 68.6087 70.6361 70.8562 69.2496 73.7596C67.863 76.6629 67.693 79.9844 68.7772 82.9932V82.9932Z" fill="#F24E1E"/>
<path d="M76.9529 105.683C78.0371 108.691 80.2864 111.141 83.2062 112.493C86.126 113.845 89.477 113.988 92.5221 112.89L104.004 108.753L95.8281 86.064L84.3467 90.2009C81.3016 91.2981 78.8119 93.5456 77.4253 96.449C76.0387 99.3524 75.8688 102.674 76.9529 105.683V105.683Z" fill="#A259FF"/>
</g>
<defs>
<clipPath id="clip0">
<rect width="48.8161" height="72.3524" fill="white" transform="translate(64.6895 71.6484) rotate(-19.815)"/>
</clipPath>
</defs>
</svg>
