<svg width="193" height="70" viewBox="0 0 193 70" fill="none" xmlns="http://www.w3.org/2000/svg">
<path d="M191.068 21.9043C191.582 25.6239 189.821 29.7252 185.633 34.0357C181.461 38.3292 175.064 42.6264 166.848 46.656C150.431 54.7079 127.063 61.5399 100.643 65.1912C74.2234 68.8425 49.8776 68.6047 31.8922 65.3073C22.8912 63.6571 15.5692 61.2559 10.3889 58.2549C5.1882 55.242 2.38077 51.772 1.86672 48.0524C1.35266 44.3329 3.11371 40.2315 7.30235 35.921C11.4745 31.6275 17.8707 27.3304 26.0868 23.3007C42.5037 15.2488 65.8724 8.41679 92.2921 4.76553C118.712 1.11427 143.057 1.35206 161.043 4.64943C170.044 6.29964 177.366 8.70088 182.546 11.7019C187.747 14.7147 190.554 18.1847 191.068 21.9043Z" fill="#FF8577" stroke="black" stroke-width="3"/>
</svg>
