<svg width="170" height="170" viewBox="0 0 170 170" fill="none" xmlns="http://www.w3.org/2000/svg">
<circle cx="68.48" cy="24.0411" r="6.34822" transform="rotate(-15 68.48 24.0411)" fill="white" stroke="black" stroke-width="3.408"/>
<circle cx="101.011" cy="145.453" r="6.34822" transform="rotate(-15 101.011 145.453)" fill="white" stroke="black" stroke-width="3.408"/>
<path d="M69.6543 29.5568L99.0765 139.4" stroke="black" stroke-width="3.408"/>
<circle cx="145.453" cy="68.4825" r="6.34822" transform="rotate(75 145.453 68.4825)" fill="white" stroke="black" stroke-width="3.408"/>
<circle cx="24.0404" cy="101.013" r="6.34822" transform="rotate(75 24.0404 101.013)" fill="white" stroke="black" stroke-width="3.408"/>
<path d="M139.586 69.9318L30.0941 99.0767" stroke="black" stroke-width="3.408"/>
<circle cx="139.174" cy="116.171" r="6.34822" transform="rotate(120 139.174 116.171)" fill="white" stroke="black" stroke-width="3.408"/>
<circle cx="30.3184" cy="53.3231" r="6.34822" transform="rotate(120 30.3184 53.3231)" fill="white" stroke="black" stroke-width="3.408"/>
<path d="M133.598 113.204L35.9692 56.2344" stroke="black" stroke-width="3.408"/>
<circle cx="53.3229" cy="139.174" r="6.34822" transform="rotate(-150 53.3229 139.174)" fill="white" stroke="black" stroke-width="3.408"/>
<circle cx="116.171" cy="30.3195" r="6.34822" transform="rotate(-150 116.171 30.3195)" fill="white" stroke="black" stroke-width="3.408"/>
<path d="M56.5176 134.068L113.259 35.9691" stroke="black" stroke-width="3.408"/>
<circle cx="84.746" cy="84.7469" r="16.9099" transform="rotate(75 84.746 84.7469)" fill="white" stroke="black" stroke-width="3.408"/>
<path d="M74.5693 98.1771C74.5693 92.5564 79.1258 87.9999 84.7466 87.9999C90.3673 87.9999 94.9238 92.5564 94.9238 98.1771" stroke="black" stroke-width="3.408"/>
<ellipse cx="85" cy="79.9999" rx="6" ry="6" transform="rotate(90 85 79.9999)" fill="white" stroke="black" stroke-width="3.408"/>
</svg>
